<?xml version="1.0" encoding="UTF-8" standalone="no"?>
<!-- Created with Inkscape (http://www.inkscape.org/) -->

<svg
   xmlns:dc="http://purl.org/dc/elements/1.1/"
   xmlns:cc="http://creativecommons.org/ns#"
   xmlns:rdf="http://www.w3.org/1999/02/22-rdf-syntax-ns#"
   xmlns:svg="http://www.w3.org/2000/svg"
   xmlns="http://www.w3.org/2000/svg"
   xmlns:sodipodi="http://sodipodi.sourceforge.net/DTD/sodipodi-0.dtd"
   xmlns:inkscape="http://www.inkscape.org/namespaces/inkscape"
   width="210mm"
   height="297mm"
   viewBox="0 0 210 297"
   version="1.1"
   id="svg855"
   sodipodi:docname="seg16-layers.svg"
   inkscape:version="0.92.5 (0.92.5+68)">
  <defs
     id="defs849" />
  <sodipodi:namedview
     id="base"
     pagecolor="#ffffff"
     bordercolor="#666666"
     borderopacity="1.0"
     inkscape:pageopacity="0.0"
     inkscape:pageshadow="2"
     inkscape:zoom="1.979899"
     inkscape:cx="250.38438"
     inkscape:cy="16.696822"
     inkscape:document-units="mm"
     inkscape:current-layer="layer3"
     showgrid="false"
     inkscape:window-width="1571"
     inkscape:window-height="983"
     inkscape:window-x="2018"
     inkscape:window-y="5"
     inkscape:window-maximized="0" />
  <metadata
     id="metadata852">
    <rdf:RDF>
      <cc:Work
         rdf:about="">
        <dc:format>image/svg+xml</dc:format>
        <dc:type
           rdf:resource="http://purl.org/dc/dcmitype/StillImage" />
        <dc:title />
      </cc:Work>
    </rdf:RDF>
  </metadata>
  <g
     inkscape:groupmode="layer"
     id="layer2"
     inkscape:label="inner-segment"
     style="display:inline">
    <path
       style="fill:none;fill-rule:evenodd;stroke:#000000;stroke-width:0.26458332px;stroke-linecap:butt;stroke-linejoin:miter;stroke-opacity:1"
       d="m 26.660615,283.60952 5.442439,-4.9166 17.158331,-0.0249 2.655831,2.18554 -3.706172,3.74432 H 29.545903 Z"
       id="path827"
       inkscape:connector-curvature="0" />
    <path
       d="m 31.220275,232.89434 -8.624121,45.72262 1.641416,1.29061 m 0,0 5.693956,-4.87828 7.952504,-42.90466 -2.398353,-2.91195 -4.265403,3.68166"
       style="fill:none;fill-rule:evenodd;stroke:#000000;stroke-width:0.26458332px;stroke-linecap:butt;stroke-linejoin:miter;stroke-opacity:1"
       id="path831"
       inkscape:connector-curvature="0" />
    <g
       id="g983">
      <g
         id="g987" />
    </g>
    <path
       id="path837"
       style="fill:none;fill-rule:evenodd;stroke:#000000;stroke-width:0.26458332px;stroke-linecap:butt;stroke-linejoin:miter;stroke-opacity:1"
       d="m 43.415824,261.3797 -4.248043,5.52395 -4.938839,4.37255 v 0 l 1.461762,-9.50007 20.6731,-29.10515 5.894049,-3.36831 -7.640294,15.46575 z"
       inkscape:connector-curvature="0"
       sodipodi:nodetypes="ccccccccc" />
    <path
       style="fill:none;fill-rule:evenodd;stroke:#000000;stroke-width:0.26458332px;stroke-linecap:butt;stroke-linejoin:miter;stroke-opacity:1"
       d="m 64.433465,232.47342 0.912601,9.38661 -5.131144,32.72816 -4.5241,3.70189 -2.644929,-3.00186 5.294628,-29.85032 z"
       id="path839"
       inkscape:connector-curvature="0" />
    <path
       style="fill:none;fill-rule:evenodd;stroke:#000000;stroke-width:0.26458332px;stroke-linecap:butt;stroke-linejoin:miter;stroke-opacity:1"
       d="m 58.63001,281.69579 3.941172,-3.0034 17.157697,1e-5 3.641418,3.8213 -1.941298,2.07819 -20.125493,0.007 z"
       id="path841"
       inkscape:connector-curvature="0" />
    <path
       style="fill:none;fill-rule:evenodd;stroke:#000000;stroke-width:0.26458332px;stroke-linecap:butt;stroke-linejoin:miter;stroke-opacity:1"
       d="m 83.308993,275.75684 3.636693,3.9514 2.828927,-3.72658 7.653387,-44.29904 -2.569319,-2.7396 -4.319895,3.9282 z"
       id="path843"
       inkscape:connector-curvature="0" />
    <path
       style="fill:none;fill-rule:evenodd;stroke:#000000;stroke-width:0.26458332px;stroke-linecap:butt;stroke-linejoin:miter;stroke-opacity:1"
       d="m 80.679046,272.41169 1.295979,-10.14742 -11.114849,-30.27105 -3.375129,-2.78661 1.46108,15.65841 8.924798,23.93914 z"
       id="path845"
       inkscape:connector-curvature="0" />
    <path
       style="fill:none;fill-rule:evenodd;stroke:#000000;stroke-width:0.26458332px;stroke-linecap:butt;stroke-linejoin:miter;stroke-opacity:1"
       d="m 69.148427,226.32714 5.624309,-2.99845 14.336304,-0.0523 2.924202,2.28855 -3.945936,3.6687 H 74.571071 Z"
       id="path847"
       inkscape:connector-curvature="0" />
    <path
       style="fill:none;fill-rule:evenodd;stroke:#000000;stroke-width:0.26458332px;stroke-linecap:butt;stroke-linejoin:miter;stroke-opacity:1"
       d="m 38.977286,226.61197 3.467767,-3.28318 14.794037,-0.0545 4.383923,2.47601 -5.881785,3.48343 H 42.288842 Z"
       id="path849"
       inkscape:connector-curvature="0" />
    <path
       style="fill:none;fill-rule:evenodd;stroke:#000000;stroke-width:0.26458332px;stroke-linecap:butt;stroke-linejoin:miter;stroke-opacity:1"
       d="m 36.179775,223.13751 4.229209,-4.30649 7.555481,-42.03325 -4.014737,-4.3962 -2.132022,2.132 -8.207252,45.86161 z"
       id="path851"
       inkscape:connector-curvature="0" />
    <path
       style="fill:none;fill-rule:evenodd;stroke:#000000;stroke-width:0.26458332px;stroke-linecap:butt;stroke-linejoin:miter;stroke-opacity:1"
       d="m 62.283389,210.18359 1.022079,12.67396 -3.614895,-3.01137 -10.626724,-29.9559 1.559848,-9.76574 3.700725,4.03653 6.913708,20.99844 z"
       id="path853"
       inkscape:connector-curvature="0" />
    <path
       style="fill:none;fill-rule:evenodd;stroke:#000000;stroke-width:0.26458332px;stroke-linecap:butt;stroke-linejoin:miter;stroke-opacity:1"
       d="m 65.377416,208.35906 1.009605,11.44555 4.806899,-9.76743 1.597144,-4.47343 5.431731,-28.98328 -2.78048,-2.78048 -4.355315,3.96094 z"
       id="path855"
       inkscape:connector-curvature="0" />
    <path
       style="fill:none;fill-rule:evenodd;stroke:#000000;stroke-width:0.26458332px;stroke-linecap:butt;stroke-linejoin:miter;stroke-opacity:1"
       d="M 51.364115,174.11637 H 69.14911 l 3.727288,-3.4303 -3.406462,-2.74542 -19.661582,0.0249 -2.019326,2.21714 z"
       id="path857"
       inkscape:connector-curvature="0" />
    <path
       style="fill:none;fill-rule:evenodd;stroke:#000000;stroke-width:0.26458332px;stroke-linecap:butt;stroke-linejoin:miter;stroke-opacity:1"
       d="m 79.172328,171.38523 4.093753,-3.41938 19.183409,-0.0538 1.86841,1.32482 -5.623626,4.8798 H 83.507161 Z"
       id="path859"
       inkscape:connector-curvature="0" />
    <path
       style="fill:none;fill-rule:evenodd;stroke:#000000;stroke-width:0.26458332px;stroke-linecap:butt;stroke-linejoin:miter;stroke-opacity:1"
       d="m 106.84703,172.7135 1.64227,1.87656 -8.32206,42.99259 -4.438041,5.48466 -2.324787,-2.64493 8.160378,-42.72682 z"
       id="path861"
       inkscape:connector-curvature="0" />
    <path
       style="fill:none;fill-rule:evenodd;stroke:#000000;stroke-width:0.26458332px;stroke-linecap:butt;stroke-linejoin:miter;stroke-opacity:1"
       d="m 97.433449,180.51689 -1.830946,9.51371 -18.887374,26.35972 -7.942698,6.18115 8.301418,-16.7772 13.996923,-19.97393 z"
       id="path863"
       inkscape:connector-curvature="0" />
  </g>
  <g
     inkscape:groupmode="layer"
     id="layer3"
     inkscape:label="holes"
     style="display:inline">
    <path
       id="path1409-8"
       style="opacity:0.35244996;vector-effect:none;fill:none;fill-opacity:1;fill-rule:nonzero;stroke:#000000;stroke-width:0.1;stroke-linecap:round;stroke-linejoin:round;stroke-miterlimit:4;stroke-dasharray:none;stroke-dashoffset:0;stroke-opacity:1"
       d="m 23.312246,168.47054 a 2.1369278,2.1369278 0 0 1 -2.136928,2.13692 2.1369278,2.1369278 0 0 1 -2.136928,-2.13692 2.1369278,2.1369278 0 0 1 2.136928,-2.13693 2.1369278,2.1369278 0 0 1 2.136928,2.13693 z" />
    <path
       id="path1409-23-0"
       style="opacity:0.35244996;vector-effect:none;fill:none;fill-opacity:1;fill-rule:nonzero;stroke:#000000;stroke-width:0.1;stroke-linecap:round;stroke-linejoin:round;stroke-miterlimit:4;stroke-dasharray:none;stroke-dashoffset:0;stroke-opacity:1"
       d="m 106.02571,168.47054 a 2.1369281,2.1369281 0 0 0 2.13693,2.13692 2.1369281,2.1369281 0 0 0 2.13693,-2.13692 2.1369281,2.1369281 0 0 0 -2.13693,-2.13693 2.1369281,2.1369281 0 0 0 -2.13693,2.13693 z" />
    <path
       id="path1409-23-5-4"
       style="opacity:0.35244996;vector-effect:none;fill:none;fill-opacity:1;fill-rule:nonzero;stroke:#000000;stroke-width:0.1;stroke-linecap:round;stroke-linejoin:round;stroke-miterlimit:4;stroke-dasharray:none;stroke-dashoffset:0;stroke-opacity:1"
       d="m 106.02571,285.12503 a 2.1369283,2.1369283 0 0 1 2.13693,-2.13693 2.1369283,2.1369283 0 0 1 2.13693,2.13693 2.1369283,2.1369283 0 0 1 -2.13693,2.13693 2.1369283,2.1369283 0 0 1 -2.13693,-2.13693 z" />
    <path
       id="path1409-23-5-5-2"
       style="opacity:0.35244996;vector-effect:none;fill:none;fill-opacity:1;fill-rule:nonzero;stroke:#000000;stroke-width:0.1;stroke-linecap:round;stroke-linejoin:round;stroke-miterlimit:4;stroke-dasharray:none;stroke-dashoffset:0;stroke-opacity:1"
       d="m 23.312237,285.12503 a 2.1369283,2.1369283 0 0 0 -2.136929,-2.13693 2.1369283,2.1369283 0 0 0 -2.136928,2.13693 2.1369283,2.1369283 0 0 0 2.136928,2.13693 2.1369283,2.1369283 0 0 0 2.136929,-2.13693 z" />
  </g>
  <g
     inkscape:groupmode="layer"
     id="layer4"
     inkscape:label="border"
     style="display:inline">
    <path
       inkscape:connector-curvature="0"
       style="display:inline;opacity:0.34132002;vector-effect:none;fill:none;fill-opacity:0.16019419;fill-rule:nonzero;stroke:#000000;stroke-width:0.09535789;stroke-linecap:round;stroke-linejoin:round;stroke-miterlimit:4;stroke-dasharray:none;stroke-dashoffset:0;stroke-opacity:1"
       d="M 13.724739,160.96538 H 115.62938 V 292.63019 H 13.724739 Z"
       id="rect1426-7-4" />
  </g>
</svg>
